<?xml version="1.0" standalone="no"?>
<!DOCTYPE svg PUBLIC "-//W3C//DTD SVG 20010904//EN"
 "http://www.w3.org/TR/2001/REC-SVG-20010904/DTD/svg10.dtd">
<svg version="1.0" xmlns="http://www.w3.org/2000/svg"
 width="1080.000000pt" height="1080.000000pt" viewBox="0 0 1080.000000 1080.000000"
 preserveAspectRatio="xMidYMid meet">
<metadata>
Created by potrace 1.14, written by Peter Selinger 2001-2017
</metadata>
<g transform="translate(0.000000,1080.000000) scale(0.100000,-0.100000)"
fill="#000000" stroke="none">
<path d="M5409 9946 c-2 -2 -40 -7 -84 -10 -44 -3 -91 -8 -105 -10 -23 -4 -83
-12 -165 -21 -33 -4 -67 -10 -105 -19 -14 -3 -36 -8 -50 -10 -115 -21 -487
-130 -531 -155 -8 -5 -47 -21 -85 -36 -192 -77 -554 -278 -637 -356 -11 -10
-29 -21 -39 -25 -10 -3 -18 -10 -18 -15 0 -5 -8 -9 -17 -9 -9 0 -13 -3 -10 -6
3 -4 -13 -20 -36 -37 -115 -82 -340 -301 -443 -430 -32 -40 -64 -77 -72 -84
-7 -6 -13 -14 -12 -17 1 -8 -82 -120 -92 -124 -5 -2 -8 -8 -8 -14 0 -5 -10
-24 -23 -41 -29 -41 -42 -63 -68 -112 -12 -22 -25 -42 -28 -45 -11 -9 -151
-295 -166 -340 -2 -7 -24 -61 -32 -80 -3 -8 -7 -17 -7 -20 -1 -3 -4 -9 -7 -15
-3 -5 -23 -64 -43 -130 -21 -66 -40 -127 -44 -135 -3 -8 -5 -18 -4 -21 1 -4
-3 -22 -9 -40 -6 -19 -13 -47 -16 -64 -2 -16 -9 -32 -14 -33 -5 -2 -7 -8 -4
-13 3 -5 1 -26 -4 -46 -6 -21 -13 -60 -17 -88 -3 -27 -8 -52 -9 -55 -2 -3 -7
-33 -10 -65 -4 -33 -9 -62 -10 -65 -4 -7 -18 -129 -18 -162 0 -16 -3 -28 -6
-28 -3 0 -7 -118 -8 -263 -1 -192 2 -283 13 -342 8 -44 17 -95 19 -113 3 -18
10 -43 17 -55 6 -12 10 -23 9 -25 -6 -5 42 -147 57 -169 8 -13 11 -23 7 -23
-5 0 0 -9 11 -21 10 -12 18 -24 18 -28 -2 -11 19 -53 58 -119 21 -34 38 -65
38 -68 0 -2 9 -14 20 -26 10 -12 16 -26 13 -32 -3 -6 -3 -8 2 -4 4 4 28 -21
52 -55 25 -34 54 -71 64 -82 10 -11 40 -44 66 -74 63 -71 180 -187 271 -269
40 -36 83 -74 96 -86 28 -26 70 -62 166 -146 41 -36 80 -69 86 -75 6 -5 44
-39 84 -75 40 -36 86 -77 102 -93 17 -15 42 -37 57 -50 14 -13 31 -31 36 -40
6 -9 31 -47 56 -84 25 -37 54 -84 65 -103 10 -19 21 -37 24 -40 12 -12 96
-176 133 -260 33 -74 62 -220 44 -220 -6 0 -6 -5 0 -13 12 -15 7 -95 -12 -187
-3 -14 -10 -50 -16 -80 -17 -88 -22 -113 -38 -170 -31 -113 -39 -142 -47 -184
-2 -16 -7 -32 -9 -36 -5 -8 -15 -53 -21 -95 -2 -16 -6 -43 -8 -60 -2 -16 -5
-32 -6 -35 -5 -13 -2 -130 5 -175 13 -98 47 -171 111 -240 21 -22 37 -43 36
-47 -1 -5 2 -8 7 -8 4 0 8 -10 7 -22 -3 -33 30 -126 60 -173 64 -98 194 -182
324 -209 50 -10 294 -13 1122 -13 582 0 1062 -3 1065 -7 3 -3 -38 -6 -93 -7
-54 0 -135 -2 -179 -4 -44 -2 -159 -6 -255 -10 -299 -10 -412 -14 -515 -20
-55 -3 -152 -7 -215 -10 -63 -3 -144 -8 -180 -10 -36 -3 -108 -7 -160 -10
-303 -16 -537 -36 -635 -56 l-50 -9 0 -68 1 -67 180 1 c151 1 450 9 664 19 30
1 138 6 240 10 102 4 210 8 240 10 30 1 123 6 205 9 83 4 175 9 205 11 30 2
107 6 170 10 277 16 440 28 511 40 14 3 42 7 62 9 65 9 72 17 72 91 l1 66 -98
-3 c-54 -2 -98 -1 -98 2 0 3 32 11 71 18 95 16 190 65 260 132 74 72 108 139
125 245 4 27 18 50 45 76 21 21 39 40 39 44 0 4 9 20 21 36 11 16 22 35 23 42
2 7 6 19 9 27 32 74 40 205 21 330 -4 30 -7 59 -6 63 1 4 -3 17 -9 29 -6 11
-12 33 -14 47 -1 14 -10 53 -19 86 -10 33 -19 67 -21 75 -1 8 -9 35 -16 60 -6
25 -13 52 -15 60 -1 8 -9 42 -17 75 -26 101 -29 126 -32 257 -3 104 0 139 16
193 20 66 148 327 188 383 11 17 21 35 21 41 0 6 5 11 10 11 6 0 10 5 10 10 0
6 18 35 40 65 22 30 40 57 40 59 0 3 106 113 236 243 395 398 505 514 589 618
17 21 38 47 47 59 28 33 31 38 73 96 22 30 44 58 50 62 6 5 6 8 0 8 -6 0 -6 3
0 8 10 7 58 77 103 153 37 61 136 265 138 284 1 11 10 36 24 70 10 23 19 54
25 85 2 12 7 30 10 40 12 38 20 89 29 178 2 18 6 35 8 37 11 11 -9 434 -26
551 -3 21 -8 59 -11 83 -5 46 -11 81 -21 121 -3 14 -7 39 -9 55 -2 17 -9 50
-15 75 -6 25 -13 52 -14 60 -1 8 -5 24 -9 35 -3 11 -9 35 -12 54 -3 19 -9 39
-13 45 -3 6 -8 20 -9 31 -5 33 -64 217 -84 262 -11 24 -19 47 -19 53 0 10 -4
20 -33 75 -8 17 -16 33 -16 37 -1 4 -11 29 -23 55 -12 27 -22 50 -23 53 -5 18
-92 179 -134 248 -28 46 -51 86 -51 88 0 3 -8 14 -18 25 -11 10 -25 32 -33 47
-8 15 -16 29 -19 32 -3 3 -37 46 -77 97 -104 132 -107 136 -233 263 -126 127
-172 168 -270 243 -36 27 -67 53 -70 56 -3 4 -54 39 -115 79 -60 39 -115 75
-121 79 -30 22 -241 131 -352 181 -129 58 -406 154 -517 178 -5 1 -30 7 -53
13 -41 11 -167 36 -237 47 -16 2 -43 6 -60 9 -16 3 -52 7 -80 10 -27 3 -66 8
-85 11 -42 6 -536 15 -541 10z m706 -711 c61 -3 124 -7 140 -9 17 -2 57 -7 90
-10 33 -4 86 -11 117 -17 32 -5 70 -12 85 -15 16 -3 35 -7 43 -9 8 -2 31 -7
50 -10 92 -16 331 -90 440 -137 102 -45 218 -103 258 -129 24 -16 45 -29 48
-29 5 0 64 -40 74 -50 3 -3 31 -25 64 -50 97 -74 205 -190 287 -310 24 -36 46
-67 49 -70 9 -9 41 -65 58 -102 9 -21 20 -38 24 -38 5 0 8 -4 8 -10 0 -5 13
-37 29 -72 39 -83 91 -236 94 -276 1 -18 4 -32 7 -32 7 0 8 -10 14 -182 3 -96
1 -148 -5 -148 -6 0 -7 -5 -4 -10 5 -8 -4 -72 -20 -135 -1 -5 -6 -25 -10 -42
-4 -18 -12 -33 -17 -33 -5 0 -7 -4 -4 -9 8 -12 -44 -136 -88 -211 -20 -34 -36
-63 -36 -66 0 -15 -181 -246 -248 -316 -63 -66 -210 -199 -317 -287 -61 -50
-155 -121 -160 -121 -5 0 -18 -9 -48 -36 -7 -6 -91 -62 -187 -125 -245 -161
-255 -167 -335 -210 -22 -12 -42 -24 -45 -28 -3 -3 -21 -15 -40 -25 -34 -19
-455 -338 -475 -360 -5 -6 -37 -33 -70 -61 -97 -81 -265 -258 -265 -279 0 -4
-9 -17 -21 -29 -26 -28 -93 -167 -113 -235 -11 -38 -12 -60 -5 -80 12 -33 32
-75 39 -82 3 -3 17 -21 30 -40 13 -19 27 -37 30 -40 3 -3 34 -40 70 -82 35
-43 68 -78 72 -78 4 0 8 -7 8 -15 0 -8 4 -15 9 -15 5 0 14 -13 21 -30 7 -16
17 -30 22 -30 16 0 70 -129 73 -173 2 -41 2 -41 -49 -60 -144 -53 -199 -62
-371 -61 -178 1 -380 35 -482 80 -17 8 -34 14 -39 14 -9 0 -197 91 -204 99 -3
3 -30 25 -60 47 -69 52 -120 99 -120 112 0 6 -4 12 -8 14 -16 6 -82 126 -88
159 -4 19 -12 40 -17 48 -12 14 -16 216 -6 266 26 125 126 314 235 445 69 83
428 434 539 527 28 23 60 50 72 60 12 10 31 26 44 37 22 18 330 248 479 356
41 30 77 58 78 62 2 5 8 8 13 8 6 0 17 6 25 13 8 6 20 17 27 22 7 6 46 35 87
65 78 56 276 218 333 272 111 105 191 185 219 220 18 22 41 50 52 61 33 38
136 199 136 212 0 7 4 15 10 17 5 2 11 12 13 23 1 11 6 26 10 32 12 20 47 123
41 123 -3 0 -2 6 3 13 12 19 14 36 18 150 3 117 -8 187 -51 299 -96 254 -331
393 -679 401 -421 11 -890 -133 -1390 -426 -38 -23 -72 -44 -75 -47 -12 -13
-101 -70 -109 -70 -5 0 -11 -4 -13 -8 -1 -5 -37 -33 -78 -62 -41 -29 -77 -56
-80 -59 -3 -3 -34 -31 -70 -61 -70 -58 -179 -159 -216 -200 -13 -14 -40 -43
-60 -65 -20 -22 -62 -74 -93 -115 l-57 -75 42 0 c58 1 190 -22 244 -42 83 -32
167 -102 174 -146 1 -7 5 -18 10 -26 7 -11 8 -65 3 -138 0 -7 -4 -13 -9 -13
-5 0 -7 -4 -3 -9 6 -11 -43 -124 -56 -129 -5 -2 -9 -10 -9 -18 0 -7 -30 -43
-66 -80 -96 -96 -226 -175 -348 -211 -68 -20 -77 -22 -154 -24 -220 -5 -466
67 -668 196 -71 46 -88 59 -169 141 -126 127 -149 174 -148 299 0 43 3 65 17
130 7 31 41 123 54 143 8 12 12 22 8 22 -7 0 61 128 81 151 7 9 10 19 6 22 -3
4 -2 7 4 7 6 0 16 14 23 30 7 17 16 30 21 30 5 0 9 5 9 10 0 9 86 132 135 195
9 11 26 33 38 49 12 16 32 40 45 53 12 13 22 27 22 31 0 3 9 15 20 27 48 50
80 86 80 92 0 3 71 76 158 162 143 143 195 192 291 275 43 37 257 197 296 222
17 10 32 21 35 24 3 3 16 12 30 19 14 8 65 39 113 68 48 29 129 74 180 101 51
26 95 52 99 57 4 6 8 7 8 3 0 -3 28 7 62 24 73 35 300 128 328 133 3 1 45 14
94 29 49 16 94 29 100 30 6 1 20 5 31 9 11 3 31 8 45 11 14 3 81 16 150 30 69
14 154 28 190 32 36 3 68 8 71 10 4 2 69 6 145 10 77 3 141 8 143 10 2 1 15 1
30 -1 14 -3 76 -7 136 -10z m-309 -5611 c16 -2 54 -10 84 -16 30 -6 61 -13 67
-14 38 -7 156 -50 212 -76 68 -32 139 -95 166 -147 22 -44 26 -111 7 -151 -8
-19 -16 -38 -16 -41 -2 -10 -39 -58 -72 -93 -65 -67 -248 -206 -272 -206 -5 0
-20 -8 -33 -19 -32 -25 -152 -75 -214 -90 -102 -24 -244 -13 -431 32 -42 11
-157 67 -197 98 -64 50 -128 119 -144 156 -15 38 -18 153 -5 198 24 75 37 95
120 180 64 66 116 102 202 140 129 57 180 66 346 60 83 -3 164 -8 180 -11z
m848 -1442 c3 -5 -1 -9 -9 -9 -8 0 -12 4 -9 9 3 4 7 8 9 8 2 0 6 -4 9 -8z"/>
<path d="M6527 1883 c-2 -2 -230 -11 -447 -18 -352 -11 -963 -39 -1090 -50
-25 -2 -85 -6 -135 -9 -128 -9 -245 -17 -280 -21 -48 -5 -147 -17 -164 -20 -9
-2 -24 -4 -33 -4 -32 -2 -45 -27 -43 -88 l2 -58 214 1 c197 2 393 8 624 19 50
2 160 7 245 10 85 3 191 8 235 10 44 2 141 7 215 10 220 10 443 23 688 40 82
6 217 22 266 31 56 10 61 17 61 89 l1 67 -179 -4 c-98 -2 -179 -4 -180 -5z"/>
<path d="M6849 1606 c-2 -3 -97 -7 -209 -11 -113 -3 -248 -7 -300 -10 -52 -2
-174 -7 -270 -10 -439 -14 -929 -38 -1230 -60 -47 -3 -114 -8 -150 -10 -36 -3
-85 -7 -110 -10 -25 -3 -67 -7 -95 -10 -56 -6 -112 -15 -136 -21 -12 -3 -15
-20 -16 -75 l-1 -71 221 7 c122 3 269 8 327 10 58 3 164 7 235 10 72 3 202 7
290 10 88 3 203 7 255 10 52 3 147 7 210 10 63 3 151 8 195 10 44 3 118 7 165
10 204 12 259 16 320 20 69 6 165 15 190 20 8 1 38 6 67 10 46 6 107 34 76 35
-9 0 -10 7 -3 25 6 15 6 26 0 30 -7 4 -7 13 0 24 7 14 5 23 -9 35 -10 9 -20
14 -22 12z"/>
<path d="M6838 1315 c-2 -2 -93 -6 -202 -9 -110 -4 -242 -9 -295 -11 -53 -2
-168 -7 -256 -10 -88 -3 -223 -7 -300 -10 -77 -3 -183 -7 -235 -10 -52 -2
-151 -7 -220 -10 -69 -3 -156 -8 -195 -10 -38 -3 -108 -7 -155 -10 -47 -3
-107 -7 -135 -10 -27 -2 -95 -7 -150 -11 -146 -9 -238 -19 -300 -30 -68 -12
-66 -10 -64 -86 l2 -70 216 7 c119 3 263 8 321 10 58 2 170 7 250 9 364 14
423 16 545 21 72 4 159 8 195 10 36 2 121 6 190 10 69 3 152 8 185 10 33 2
105 7 160 10 55 3 120 7 145 10 25 2 81 7 125 10 44 4 82 8 85 10 3 2 27 6 55
10 63 8 87 28 75 61 -5 13 -6 24 -2 24 9 0 8 58 -2 67 -7 7 -33 13 -38 8z"/>
<path d="M6818 1025 c-3 -3 -80 -6 -488 -20 -47 -2 -162 -6 -256 -10 -94 -3
-215 -8 -270 -10 -173 -6 -386 -15 -474 -20 -47 -3 -132 -7 -190 -10 -58 -3
-125 -8 -150 -10 -25 -2 -92 -6 -150 -10 -183 -11 -285 -20 -360 -30 -162 -22
-150 -14 -150 -97 l0 -70 223 7 c122 3 267 8 322 10 113 4 352 13 530 20 148
6 355 15 455 20 41 3 131 7 200 10 69 3 145 8 170 10 25 2 97 6 160 10 177 10
334 23 360 30 8 2 35 7 60 10 61 9 69 18 68 79 -1 29 2 58 6 64 4 8 0 12 -11
13 -10 0 -26 2 -35 4 -9 2 -18 2 -20 0z"/>
<path d="M6840 781 c-14 -8 -111 -25 -200 -35 -132 -15 -160 -18 -205 -21 -27
-2 -81 -6 -120 -9 -38 -3 -104 -8 -145 -11 -41 -3 -104 -7 -140 -10 -36 -2
-114 -7 -175 -10 -60 -4 -137 -8 -170 -10 -33 -2 -114 -7 -180 -10 -66 -3
-151 -8 -190 -10 -78 -6 -220 -13 -370 -20 -141 -7 -241 -14 -425 -30 -79 -7
-144 -17 -167 -26 -21 -8 -22 -14 -21 -108 l0 -99 62 -11 c57 -11 103 -16 236
-26 66 -5 313 -15 500 -20 186 -5 990 -5 1125 0 203 7 370 16 415 20 25 3 64
7 88 10 23 2 59 9 80 15 l39 10 -1 207 c-1 128 -5 207 -11 209 -5 2 -17 -1
-25 -5z"/>
</g>
</svg>
